<svg width="603" height="44" viewBox="0 0 603 44" fill="none" xmlns="http://www.w3.org/2000/svg">
<path d="M0.638528 0.999997H10.3585C13.6385 0.999997 16.0985 1.88 17.7385 3.64C19.3785 5.4 20.1985 7.98 20.1985 11.38V15.52C20.1985 18.92 19.3785 21.5 17.7385 23.26C16.0985 25.02 13.6385 25.9 10.3585 25.9H7.23853V43H0.638528V0.999997ZM10.3585 19.9C11.4385 19.9 12.2385 19.6 12.7585 19C13.3185 18.4 13.5985 17.38 13.5985 15.94V10.96C13.5985 9.52 13.3185 8.5 12.7585 7.9C12.2385 7.3 11.4385 7 10.3585 7H7.23853V19.9H10.3585ZM32.4831 0.999997H41.4231L48.2631 43H41.6631L40.4631 34.66V34.78H32.9631L31.7631 43H25.6431L32.4831 0.999997ZM39.6831 29.08L36.7431 8.32H36.6231L33.7431 29.08H39.6831ZM57.1745 0.999997H66.9545C70.3545 0.999997 72.8345 1.8 74.3945 3.4C75.9545 4.96 76.7345 7.38 76.7345 10.66V13.24C76.7345 17.6 75.2945 20.36 72.4145 21.52V21.64C74.0145 22.12 75.1345 23.1 75.7745 24.58C76.4545 26.06 76.7945 28.04 76.7945 30.52V37.9C76.7945 39.1 76.8345 40.08 76.9145 40.84C76.9945 41.56 77.1945 42.28 77.5145 43H70.7945C70.5545 42.32 70.3945 41.68 70.3145 41.08C70.2345 40.48 70.1945 39.4 70.1945 37.84V30.16C70.1945 28.24 69.8745 26.9 69.2345 26.14C68.6345 25.38 67.5745 25 66.0545 25H63.7745V43H57.1745V0.999997ZM66.1745 19C67.4945 19 68.4745 18.66 69.1145 17.98C69.7945 17.3 70.1345 16.16 70.1345 14.56V11.32C70.1345 9.8 69.8545 8.7 69.2945 8.02C68.7745 7.34 67.9345 7 66.7745 7H63.7745V19H66.1745ZM92.1259 7H85.2259V0.999997H105.626V7H98.7259V43H92.1259V7ZM114.531 0.999997H122.811L129.231 26.14H129.351V0.999997H135.231V43H128.451L120.531 12.34H120.411V43H114.531V0.999997ZM145.846 0.999997H163.846V7H152.446V18.1H161.506V24.1H152.446V37H163.846V43H145.846V0.999997ZM173.352 0.999997H183.132C186.532 0.999997 189.012 1.8 190.572 3.4C192.132 4.96 192.912 7.38 192.912 10.66V13.24C192.912 17.6 191.472 20.36 188.592 21.52V21.64C190.192 22.12 191.312 23.1 191.952 24.58C192.632 26.06 192.972 28.04 192.972 30.52V37.9C192.972 39.1 193.012 40.08 193.092 40.84C193.172 41.56 193.372 42.28 193.692 43H186.972C186.732 42.32 186.572 41.68 186.492 41.08C186.412 40.48 186.372 39.4 186.372 37.84V30.16C186.372 28.24 186.052 26.9 185.412 26.14C184.812 25.38 183.752 25 182.232 25H179.952V43H173.352V0.999997ZM182.352 19C183.672 19 184.652 18.66 185.292 17.98C185.972 17.3 186.312 16.16 186.312 14.56V11.32C186.312 9.8 186.032 8.7 185.472 8.02C184.952 7.34 184.112 7 182.952 7H179.952V19H182.352ZM217.019 0.999997H223.379L226.319 33.28H226.439L229.559 0.999997H236.759L239.879 33.28H239.999L242.939 0.999997H248.639L244.379 43H236.159L233.159 14.68H233.039L230.039 43H221.279L217.019 0.999997ZM257.687 0.999997H264.287V43H257.687V0.999997ZM280.099 7H273.199V0.999997H293.599V7H286.699V43H280.099V7ZM302.504 0.999997H309.104V18.1H316.184V0.999997H322.784V43H316.184V24.1H309.104V43H302.504V0.999997ZM348.728 0.999997H355.328V18.7L363.728 0.999997H370.328L362.468 16.42L370.448 43H363.548L357.968 24.28L355.328 29.62V43H348.728V0.999997ZM387.883 43.6C384.643 43.6 382.163 42.68 380.443 40.84C378.723 39 377.863 36.4 377.863 33.04V10.96C377.863 7.6 378.723 5 380.443 3.16C382.163 1.32 384.643 0.399998 387.883 0.399998C391.123 0.399998 393.603 1.32 395.323 3.16C397.043 5 397.903 7.6 397.903 10.96V33.04C397.903 36.4 397.043 39 395.323 40.84C393.603 42.68 391.123 43.6 387.883 43.6ZM387.883 37.6C390.163 37.6 391.303 36.22 391.303 33.46V10.54C391.303 7.78 390.163 6.4 387.883 6.4C385.603 6.4 384.463 7.78 384.463 10.54V33.46C384.463 36.22 385.603 37.6 387.883 37.6ZM408.076 0.999997H416.356L422.776 26.14H422.896V0.999997H428.776V43H421.996L414.076 12.34H413.956V43H408.076V0.999997ZM447.971 43.6C444.771 43.6 442.351 42.7 440.711 40.9C439.071 39.06 438.251 36.44 438.251 33.04V30.64H444.491V33.52C444.491 36.24 445.631 37.6 447.911 37.6C449.031 37.6 449.871 37.28 450.431 36.64C451.031 35.96 451.331 34.88 451.331 33.4C451.331 31.64 450.931 30.1 450.131 28.78C449.331 27.42 447.851 25.8 445.691 23.92C442.971 21.52 441.071 19.36 439.991 17.44C438.911 15.48 438.371 13.28 438.371 10.84C438.371 7.52 439.211 4.96 440.891 3.16C442.571 1.32 445.011 0.399998 448.211 0.399998C451.371 0.399998 453.751 1.32 455.351 3.16C456.991 4.96 457.811 7.56 457.811 10.96V12.7H451.571V10.54C451.571 9.1 451.291 8.06 450.731 7.42C450.171 6.74 449.351 6.4 448.271 6.4C446.071 6.4 444.971 7.74 444.971 10.42C444.971 11.94 445.371 13.36 446.171 14.68C447.011 16 448.511 17.6 450.671 19.48C453.431 21.88 455.331 24.06 456.371 26.02C457.411 27.98 457.931 30.28 457.931 32.92C457.931 36.36 457.071 39 455.351 40.84C453.671 42.68 451.211 43.6 447.971 43.6ZM472.584 7H465.684V0.999997H486.084V7H479.184V43H472.584V7ZM494.989 0.999997H504.769C508.169 0.999997 510.649 1.8 512.209 3.4C513.769 4.96 514.549 7.38 514.549 10.66V13.24C514.549 17.6 513.109 20.36 510.229 21.52V21.64C511.829 22.12 512.949 23.1 513.589 24.58C514.269 26.06 514.609 28.04 514.609 30.52V37.9C514.609 39.1 514.649 40.08 514.729 40.84C514.809 41.56 515.009 42.28 515.329 43H508.609C508.369 42.32 508.209 41.68 508.129 41.08C508.049 40.48 508.009 39.4 508.009 37.84V30.16C508.009 28.24 507.689 26.9 507.049 26.14C506.449 25.38 505.389 25 503.869 25H501.589V43H494.989V0.999997ZM503.989 19C505.309 19 506.289 18.66 506.929 17.98C507.609 17.3 507.949 16.16 507.949 14.56V11.32C507.949 9.8 507.669 8.7 507.109 8.02C506.589 7.34 505.749 7 504.589 7H501.589V19H503.989ZM534.498 43.6C531.298 43.6 528.858 42.7 527.178 40.9C525.498 39.06 524.658 36.44 524.658 33.04V0.999997H531.258V33.52C531.258 34.96 531.538 36 532.098 36.64C532.698 37.28 533.538 37.6 534.618 37.6C535.698 37.6 536.518 37.28 537.078 36.64C537.678 36 537.978 34.96 537.978 33.52V0.999997H544.338V33.04C544.338 36.44 543.498 39.06 541.818 40.9C540.138 42.7 537.698 43.6 534.498 43.6ZM564.048 43.6C560.888 43.6 558.468 42.7 556.788 40.9C555.148 39.1 554.328 36.56 554.328 33.28V10.72C554.328 7.44 555.148 4.9 556.788 3.1C558.468 1.3 560.888 0.399998 564.048 0.399998C567.208 0.399998 569.608 1.3 571.248 3.1C572.928 4.9 573.768 7.44 573.768 10.72V15.16H567.528V10.3C567.528 7.7 566.428 6.4 564.228 6.4C562.028 6.4 560.928 7.7 560.928 10.3V33.76C560.928 36.32 562.028 37.6 564.228 37.6C566.428 37.6 567.528 36.32 567.528 33.76V27.34H573.768V33.28C573.768 36.56 572.928 39.1 571.248 40.9C569.608 42.7 567.208 43.6 564.048 43.6ZM588.586 7H581.686V0.999997H602.086V7H595.186V43H588.586V7Z" fill="white"/>
</svg>
